# xmcd
#
# Track frame offsets:
#  183
#  21445
#  37850
#  55778
#  70098
#  92923
#  108778
#  122585
#  138333
#  155695
#
# Disc length: 2264 seconds
#
# Revision: 0
# Processed by: cddbd v1.5.2PL0 Copyright (c) Steve Scherf et al.
# Submitted via: Collectorz.com_Music_Collector 6.11
#
DISCID=7d08d60a
DTITLE=Bonnie Raitt - Streetlights
DYEAR=1974
DGENRE=Blues
TTITLE0=That Song About The Midway
TTITLE1=Rainy Day Man
TTITLE2=Angel From Montgomery
TTITLE3=I Got Plenty
TTITLE4=Streetlights
TTITLE5=What Is Success
TTITLE6=Ain't Nobody Home
TTITLE7=Everything That Touches You
TTITLE8=Got You On My Mind
TTITLE9=You Got To Be Ready For Love (If You Wanna Be Mine)
EXTD=
EXTT0=
EXTT1=
EXTT2=
EXTT3=
EXTT4=
EXTT5=
EXTT6=
EXTT7=
EXTT8=
EXTT9=
PLAYORDER=
